<svg xmlns="http://www.w3.org/2000/svg" version="1.1" xmlns:xlink="http://www.w3.org/1999/xlink" xmlns:svgjs="http://svgjs.dev/svgjs" width="1500" height="1500" viewBox="0 0 1500 1500"><rect width="1500" height="1500" fill="#97978d"></rect><g transform="matrix(0.6666666666666666,0,0,0.6666666666666666,250.72812890012966,262.29859970920535)"><svg viewBox="0 0 335 327" data-background-color="#97978d" preserveAspectRatio="xMidYMid meet" height="1464" width="1500" xmlns="http://www.w3.org/2000/svg" xmlns:xlink="http://www.w3.org/1999/xlink"><g id="tight-bounds" transform="matrix(1,0,0,1,-0.24392318154343684,-0.10004314027679584)"><svg viewBox="0 0 335.4878463630869 327.2" height="327.2" width="335.4878463630869"><g><svg viewBox="0 0 395.52 385.7491274361681" height="327.2" width="335.4878463630869"><g transform="matrix(1,0,0,1,0,255.5003445907744)"><svg viewBox="0 0 395.52 130.24878284539372" height="130.24878284539372" width="395.52"><g id="textblocktransform"><svg viewBox="0 0 395.52 130.24878284539372" height="130.24878284539372" width="395.52" id="textblock"><g><svg viewBox="0 0 395.52 130.24878284539372" height="130.24878284539372" width="395.52"><g transform="matrix(1,0,0,1,0,0)"><svg width="395.52" viewBox="-2.887016398459447 -32.55111493007379 154.10446473591 50.748165519752796" height="130.24878284539372" data-palette-color="#c8c8c8"><path d="M10.408 10.249l-0.369 0.127c-0.687 0.238-1.211 0.314-1.572 0.228-0.359-0.08-0.594-0.278-0.702-0.593v0l-10.53-30.398c-0.323-0.932-0.003-1.565 0.961-1.899v0l6.737-2.334c5.921-2.051 9.967 0.054 12.136 6.316v0c0.628 1.814 0.85 3.512 0.664 5.093-0.186 1.581-1.029 2.875-2.529 3.881v0l0.065 0.189c0.952 0.122 1.817 0.45 2.596 0.985 0.778 0.535 1.584 1.356 2.419 2.464v0l6.14 8.192c0.15 0.23 0.297 0.451 0.441 0.662 0.144 0.211 0.237 0.38 0.281 0.506v0c0.107 0.309 0.033 0.553-0.222 0.733-0.251 0.172-0.688 0.365-1.312 0.581v0l-0.709 0.246c-1.027 0.356-1.743 0.254-2.148-0.304v0l-5.954-7.992c-1.187-1.614-2.241-2.61-3.162-2.989-0.915-0.381-2.044-0.34-3.386 0.125v0l-2.948 1.021 4.664 13.465c0.109 0.315 0.057 0.612-0.157 0.891-0.218 0.287-0.686 0.555-1.404 0.804zM2.186-19.689l3.888 11.225 4.12-1.427c1.587-0.55 2.585-1.368 2.992-2.454 0.413-1.089 0.29-2.584-0.369-4.486v0c-0.711-2.054-1.579-3.418-2.604-4.094-1.018-0.677-2.32-0.741-3.907-0.191v0zM37.716 2.693v0c-3.031 0.652-5.581 0.051-7.65-1.803-2.068-1.847-3.549-4.852-4.445-9.017v0c-0.901-4.191-0.796-7.589 0.315-10.194 1.112-2.598 3.183-4.223 6.214-4.875v0c2.998-0.645 5.52-0.014 7.567 1.892 2.046 1.906 3.523 4.97 4.431 9.194v0c0.902 4.197 0.815 7.551-0.261 10.06-1.083 2.51-3.14 4.091-6.171 4.743zM36.868-0.777v0c1.708-0.367 2.807-1.405 3.299-3.113 0.498-1.71 0.401-4.178-0.293-7.404v0c-0.694-3.226-1.62-5.523-2.78-6.889-1.155-1.375-2.586-1.878-4.294-1.511v0c-1.74 0.374-2.84 1.412-3.299 3.113-0.466 1.703-0.348 4.183 0.352 7.442v0c0.694 3.226 1.603 5.52 2.727 6.88 1.118 1.362 2.547 1.856 4.288 1.482zM56.432-0.108v0c-2.104 0.204-3.852-0.284-5.245-1.461-1.386-1.172-2.2-3.005-2.441-5.501v0c-0.191-1.971 0.057-3.596 0.744-4.874 0.687-1.279 1.651-2.283 2.893-3.013 1.235-0.736 2.616-1.275 4.143-1.616 1.527-0.349 3.027-0.594 4.5-0.737v0l-0.229-2.369c-0.098-1.015-0.487-1.879-1.165-2.59-0.686-0.717-1.815-1-3.387-0.848v0c-1.214 0.118-2.31 0.357-3.286 0.72-0.976 0.362-1.763 0.713-2.36 1.052-0.597 0.339-0.995 0.518-1.194 0.538v0c-0.332 0.032-0.624-0.254-0.876-0.86-0.259-0.604-0.408-1.106-0.447-1.504v0c-0.028-0.292 0.348-0.693 1.129-1.204 0.775-0.504 1.774-0.979 2.996-1.425 1.215-0.453 2.463-0.741 3.745-0.865v0c2.628-0.254 4.742 0.204 6.342 1.376 1.607 1.171 2.523 2.921 2.748 5.249v0l1.097 11.337c0.193 1.997 0.418 3.456 0.675 4.376 0.25 0.927 0.387 1.503 0.408 1.728v0c0.039 0.398-0.278 0.727-0.949 0.986-0.664 0.265-1.262 0.423-1.793 0.475v0c-0.425 0.041-0.75-0.169-0.975-0.629-0.225-0.46-0.51-1.253-0.853-2.379v0c-0.721 1.135-1.586 2.056-2.596 2.763-1.003 0.713-2.211 1.138-3.624 1.275zM56.879-3.687v0c1.148-0.111 2.146-0.489 2.995-1.134 0.849-0.645 1.552-1.507 2.111-2.585v0l-0.621-6.41c-3.218 0.311-5.455 0.903-6.71 1.774-1.262 0.866-1.79 2.367-1.583 4.504v0c0.27 2.787 1.539 4.071 3.808 3.851zM74.403-1.036l-0.4-0.019c-0.726-0.035-1.224-0.159-1.494-0.373-0.27-0.207-0.397-0.476-0.381-0.809v0l0.845-17.45c0.099-2.044 0.091-3.54-0.024-4.486-0.121-0.947-0.174-1.584-0.157-1.91v0c0.018-0.366 0.376-0.606 1.076-0.719 0.7-0.113 1.312-0.157 1.838-0.131v0c0.459 0.022 0.767 0.284 0.923 0.785 0.163 0.502 0.327 1.384 0.493 2.647v0c0.848-1.114 1.814-1.975 2.898-2.583 1.091-0.608 2.279-0.881 3.564-0.818v0c1.152 0.056 2.273 0.407 3.363 1.054 1.09 0.647 1.833 1.707 2.229 3.181v0c0.816-1.149 1.785-2.059 2.905-2.733 1.121-0.673 2.34-0.978 3.659-0.914v0c1.092 0.053 2.103 0.332 3.033 0.838 0.936 0.513 1.667 1.275 2.192 2.288 0.531 1.02 0.758 2.336 0.679 3.948v0l-0.889 18.388c-0.016 0.333-0.169 0.589-0.458 0.769-0.289 0.186-0.797 0.262-1.523 0.227v0l-0.399-0.02c-0.726-0.035-1.224-0.159-1.494-0.372-0.27-0.207-0.397-0.476-0.381-0.81v0l0.849-17.549c0.061-1.252-0.172-2.244-0.697-2.977-0.525-0.74-1.363-1.137-2.515-1.193v0c-1.125-0.054-2.111 0.305-2.956 1.078-0.845 0.767-1.436 1.539-1.774 2.317v0c-0.005 0.093-0.01 0.2-0.015 0.32-0.005 0.113-0.011 0.22-0.016 0.319v0l-0.837 17.3c-0.016 0.333-0.169 0.589-0.458 0.769-0.289 0.186-0.797 0.262-1.522 0.226v0l-0.39-0.018c-0.726-0.035-1.224-0.159-1.494-0.373-0.27-0.207-0.397-0.476-0.381-0.809v0l0.849-17.55c0.061-1.252-0.165-2.244-0.677-2.976-0.512-0.739-1.343-1.136-2.495-1.192v0c-0.819-0.04-1.562 0.131-2.227 0.513-0.659 0.382-1.202 0.836-1.628 1.363-0.419 0.52-0.705 0.977-0.857 1.37v0l-0.876 18.089c-0.016 0.333-0.169 0.589-0.458 0.769-0.289 0.186-0.797 0.262-1.522 0.226zM108.307 1.791l-0.394-0.066c-0.717-0.12-1.197-0.302-1.44-0.545-0.244-0.237-0.339-0.52-0.283-0.849v0l3.949-23.571c0.061-0.362 0.244-0.608 0.55-0.74 0.306-0.131 0.817-0.137 1.534-0.016v0l0.394 0.066c0.717 0.12 1.198 0.292 1.445 0.516 0.246 0.224 0.339 0.517 0.279 0.878v0l-3.95 23.571c-0.055 0.329-0.237 0.565-0.545 0.71-0.309 0.151-0.822 0.166-1.539 0.046zM112.994-27.386v0c-0.782-0.131-1.319-0.319-1.609-0.563-0.296-0.252-0.417-0.54-0.363-0.862v0l0.491-2.929c0.055-0.329 0.264-0.564 0.625-0.706 0.354-0.137 0.922-0.139 1.705-0.009v0c0.782 0.131 1.32 0.312 1.612 0.544 0.299 0.233 0.418 0.53 0.358 0.891v0l-0.491 2.93c-0.054 0.322-0.262 0.554-0.624 0.696-0.354 0.137-0.922 0.139-1.704 0.008zM118.899 4.227l-0.378-0.093c-0.705-0.175-1.17-0.393-1.394-0.654-0.225-0.255-0.298-0.544-0.218-0.868v0l5.124-20.705-1.97-0.488c-0.608-0.151-0.794-0.705-0.557-1.663v0l0.144-0.582c0.237-0.958 0.66-1.361 1.268-1.211v0l1.971 0.488 1.321-5.339c0.412-1.663 1.015-2.839 1.81-3.529 0.8-0.681 1.654-1.064 2.561-1.148 0.899-0.08 1.685-0.036 2.358 0.13v0c0.421 0.104 0.875 0.265 1.364 0.482 0.487 0.224 0.898 0.48 1.232 0.768 0.34 0.29 0.467 0.61 0.38 0.96v0c-0.032 0.129-0.111 0.381-0.238 0.755-0.128 0.38-0.29 0.715-0.485 1.003-0.19 0.296-0.398 0.416-0.625 0.36v0c-0.155-0.038-0.358-0.133-0.609-0.285-0.253-0.145-0.667-0.289-1.243-0.431v0c-0.705-0.175-1.227-0.091-1.566 0.251-0.345 0.34-0.656 1.07-0.934 2.19v0l-1.201 4.854 3.223 0.797c0.641 0.159 0.842 0.717 0.605 1.675v0l-0.144 0.582c-0.237 0.958-0.676 1.357-1.316 1.199v0l-3.223-0.797-5.124 20.705c-0.08 0.324-0.279 0.546-0.598 0.666-0.32 0.127-0.832 0.103-1.538-0.072zM129.242 17.969l-0.568-0.193c-1.124-0.382-1.595-0.838-1.415-1.368v0c0.032-0.095 0.088-0.206 0.167-0.335 0.079-0.128 0.145-0.218 0.197-0.271v0l5.409-7.308 0.921-25.616c0.011-0.137 0.026-0.262 0.043-0.376 0.024-0.112 0.052-0.215 0.084-0.309v0c0.18-0.53 0.879-0.588 2.098-0.175v0l0.606 0.206c0.436 0.148 0.793 0.329 1.072 0.544 0.273 0.212 0.393 0.471 0.359 0.777v0l-1.586 19.898 0.189 0.064 10.402-16.902c0.153-0.265 0.412-0.395 0.777-0.391 0.365 0.004 0.768 0.081 1.209 0.232v0l0.559 0.19c1.124 0.382 1.595 0.838 1.415 1.368v0c-0.032 0.095-0.064 0.189-0.096 0.284-0.03 0.088-0.103 0.201-0.221 0.337v0l-19.634 29.184c-0.16 0.263-0.422 0.392-0.786 0.388-0.365-0.004-0.765-0.08-1.2-0.228z" opacity="1" transform="matrix(1,0,0,1,0,0)" fill="#c8c8c8" class="wordmark-text-0" data-fill-palette-color="primary" id="text-0"></path></svg></g></svg></g></svg></g></svg></g><g transform="matrix(1,0,0,1,90.95934503191789,0)"><svg viewBox="0 0 213.6013099361642 210.74253064384703" height="210.74253064384703" width="213.6013099361642"><g><svg xmlns="http://www.w3.org/2000/svg" xmlns:xlink="http://www.w3.org/1999/xlink" version="1.1" x="0" y="0" viewBox="5.00025 5.603027776661499 89.9994999808748 88.7949722233385" enable-background="new 0 0 100 100" xml:space="preserve" height="210.74253064384703" width="213.6013099361642" class="icon-icon-0" data-fill-palette-color="accent" id="icon-0"><g fill="#636365" data-fill-palette-color="accent"><path d="M93.926 7.859c-0.097-0.163-0.214-0.312-0.349-0.445l-0.398-0.4c-0.132-0.129-0.278-0.242-0.434-0.337-4.462-2.678-12.771-0.174-18.521 5.58l-8.416 8.414-38.194-2.546c-0.062-0.003-0.123-0.006-0.185-0.006-3.17 0.044-5.575 1.787-6.126 4.446-0.542 2.612 0.829 6.561 6.472 9.113l18.231 9.116c-2.979 3.5-8.587 10.266-11.385 14.817l-10.62 1.181c-1.269 0.141-2.183 1.284-2.042 2.555l0.653 5.886c0.117 1.047 0.926 1.884 1.972 2.033l7.661 1.094 1.096 7.663c0.149 1.043 0.984 1.854 2.033 1.972l5.886 0.653c0.606 0.065 1.219-0.11 1.699-0.492 0.48-0.384 0.785-0.94 0.855-1.552l1.178-10.621c4.553-2.797 11.317-8.402 14.818-11.382l9.116 18.231c2.218 4.902 5.49 6.58 8.024 6.58 0.381 0 0.747-0.038 1.087-0.108 2.66-0.551 4.403-2.956 4.444-6.126 0-0.062 0-0.123-0.003-0.185l-2.549-38.198 8.414-8.414C94.099 20.629 96.604 12.321 93.926 7.859zM75.92 32.266c-0.472 0.472-0.718 1.125-0.674 1.79l2.61 39.141c-0.023 0.706-0.231 1.468-0.756 1.576-0.785 0.159-2.566-0.744-3.979-3.884-0.012-0.029-0.026-0.057-0.041-0.086l-10.464-20.93c-0.319-0.642-0.92-1.099-1.623-1.236-0.146-0.029-0.296-0.043-0.445-0.043-0.557 0-1.099 0.201-1.523 0.576-0.117 0.101-11.725 10.272-17.326 13.383-0.653 0.363-1.093 1.022-1.175 1.767l-1.052 9.475-1.808-0.202L36.61 66.21c-0.085-0.577-0.372-1.075-0.782-1.427-0.354-0.415-0.853-0.706-1.433-0.788L27.01 62.94l-0.199-1.808 9.475-1.055c0.744-0.082 1.403-0.519 1.767-1.175 3.111-5.602 13.28-17.208 13.383-17.324 0.472-0.539 0.668-1.267 0.53-1.972-0.138-0.703-0.592-1.302-1.233-1.623L29.802 27.52c-0.029-0.015-0.059-0.026-0.088-0.041-3.138-1.409-4.049-3.188-3.885-3.976 0.108-0.524 0.873-0.734 1.579-0.757l39.141 2.609c0.665 0.041 1.315-0.199 1.79-0.672l9.154-9.157c4.614-4.614 10.351-5.996 12.604-5.019 0.973 2.256-0.407 7.989-5.021 12.604L75.92 32.266z" fill="#636365" data-fill-palette-color="accent"></path><path d="M26.061 46.546c0.902-0.902 0.902-2.367 0-3.269-0.902-0.904-2.367-0.904-3.27 0L5.679 60.389c-0.905 0.903-0.905 2.367 0 3.271 0.451 0.451 1.043 0.679 1.635 0.679s1.184-0.228 1.635-0.679L26.061 46.546z" fill="#636365" data-fill-palette-color="accent"></path><path d="M53.312 75.652L38.515 90.45c-0.905 0.903-0.905 2.366 0 3.269 0.451 0.453 1.043 0.679 1.635 0.679s1.184-0.226 1.635-0.679l14.798-14.797c0.905-0.902 0.905-2.367 0-3.27C55.68 74.747 54.215 74.747 53.312 75.652z" fill="#636365" data-fill-palette-color="accent"></path><path d="M24.64 72.876L9.379 88.139c-0.905 0.902-0.905 2.367 0 3.27 0.451 0.451 1.043 0.676 1.635 0.676s1.184-0.225 1.635-0.676l15.261-15.261c0.902-0.904 0.902-2.367 0-3.271C27.007 71.973 25.542 71.973 24.64 72.876z" fill="#636365" data-fill-palette-color="accent"></path></g></svg></g></svg></g><g></g></svg></g><defs></defs></svg><rect width="335.4878463630869" height="327.2" fill="none" stroke="none" visibility="hidden"></rect></g></svg></g></svg>