<svg xmlns="http://www.w3.org/2000/svg" width="104.426" height="51.023" viewBox="0 0 104.426 51.023">
  <path id="Path_54557" data-name="Path 54557" d="M22.362-2.16a3.237,3.237,0,0,0,1.767-.476A3.083,3.083,0,0,0,25.2-4.743a3.875,3.875,0,0,1,.725-1.971,1.493,1.493,0,0,1,.984-.34,1.241,1.241,0,0,1,.848.438,1.589,1.589,0,0,1,.438,1.176A34.781,34.781,0,0,0,28.52-.684Q28.52.793,27.1.656A27.087,27.087,0,0,0,24.227.547H2.926Q.41.547.41-.752q0-.857.451-1.091a3.333,3.333,0,0,1,1.381-.263q1.777-.109,2.215-.943a4.029,4.029,0,0,0,.438-1.9V-33.633A3.421,3.421,0,0,0,4.4-35.451a3.733,3.733,0,0,0-2.146-1.326,4.573,4.573,0,0,1-2-.966,1.623,1.623,0,0,1-.342-1.014.842.842,0,0,1,.409-.636A1.578,1.578,0,0,1,1.31-39.7a8.2,8.2,0,0,1,1.842.506,9.83,9.83,0,0,0,3.234.506,15.156,15.156,0,0,0,4.176-.561,12.6,12.6,0,0,1,2.538-.561,1.569,1.569,0,0,1,1.105.447,1.333,1.333,0,0,1,.478.988,1.1,1.1,0,0,1-.287.772,3.126,3.126,0,0,1-1.49.555,5.016,5.016,0,0,0-2.16.82A3.823,3.823,0,0,0,9.68-33.168V-5.8a4.653,4.653,0,0,0,.644,2.844A2.275,2.275,0,0,0,12.2-2.16Zm19.283-17.5a11.3,11.3,0,0,1,7.916,3.117,9.534,9.534,0,0,1,3.377,7.191,9.494,9.494,0,0,1-3.227,7.438A12.52,12.52,0,0,1,41.07.957,11.459,11.459,0,0,1,33.4-1.969,9.208,9.208,0,0,1,30-9.242a10.217,10.217,0,0,1,2.994-7.287Q35.984-19.66,41.645-19.66Zm.027,18.211a6.172,6.172,0,0,0,5.018-2.27,8.721,8.721,0,0,0,1.873-5.742,7.962,7.962,0,0,0-2.01-5.605,6.623,6.623,0,0,0-5.1-2.187,5.993,5.993,0,0,0-4.922,2.146,8.481,8.481,0,0,0-1.75,5.537,8.617,8.617,0,0,0,1.941,5.934A6.324,6.324,0,0,0,41.672-1.449ZM73.1-7.393l.082.109a11.161,11.161,0,0,1,4.388,3.721,8.89,8.89,0,0,1,1.673,5.171,8.168,8.168,0,0,1-3.773,6.908,14.89,14.89,0,0,1-8.887,2.695,14.388,14.388,0,0,1-8.928-2.777A8.683,8.683,0,0,1,53.977,1.17,8.043,8.043,0,0,1,55.7-3.754a10.753,10.753,0,0,1,4.526-3.475L60.4-7.42l-.22-.273a6.149,6.149,0,0,1-2.16-2.227,6,6,0,0,1-.784-3.019,5.276,5.276,0,0,1,2.312-4.385,12.046,12.046,0,0,1,5.87-2.172.766.766,0,0,0,.628-.435,11.844,11.844,0,0,1,1.926-2.87,5.664,5.664,0,0,1,2.446-1.877,15.378,15.378,0,0,1,3.743-.313,1.4,1.4,0,0,1,1.558,1.6,1.836,1.836,0,0,1-.767,1.534,3.166,3.166,0,0,1-1.972.584,3.616,3.616,0,0,1-.685-.082,3.616,3.616,0,0,0-.685-.082,3.433,3.433,0,0,0-2.246.738q-.9.738-.9.984,0,.273.355.273a8.931,8.931,0,0,1,5.231,2.268A6.19,6.19,0,0,1,75.988-12.5a5.708,5.708,0,0,1-2.7,4.863Zm-6.3-.519a4.942,4.942,0,0,0,3.6-1.461,4.753,4.753,0,0,0,1.482-3.51,3.97,3.97,0,0,0-.707-2.2,4.419,4.419,0,0,0-1.836-1.612,4.71,4.71,0,0,0-1.509-.533q-.191,0-.245.246-.326,1.258-1.387,1.258-.952,0-.952-1.066,0-.3-.245-.3a3.42,3.42,0,0,0-1.292.478,3.943,3.943,0,0,0-1.55,1.584,4.851,4.851,0,0,0-.639,2.472,4.154,4.154,0,0,0,1.6,3.291A5.538,5.538,0,0,0,66.8-7.912Zm-.273,16.8a8.882,8.882,0,0,0,5.955-2.049,6.688,6.688,0,0,0,2.412-5.354,6.543,6.543,0,0,0-2.358-5.3,8.981,8.981,0,0,0-5.955-1.967A8.7,8.7,0,0,0,60.491-3.8a6.946,6.946,0,0,0-2.167,5.395,6.39,6.39,0,0,0,2.562,5.285A8.938,8.938,0,0,0,66.528,8.887ZM93.051-19.66a11.3,11.3,0,0,1,7.916,3.117,9.534,9.534,0,0,1,3.377,7.191,9.494,9.494,0,0,1-3.227,7.438A12.52,12.52,0,0,1,92.477.957a11.459,11.459,0,0,1-7.67-2.926,9.208,9.208,0,0,1-3.4-7.273A10.217,10.217,0,0,1,84.4-16.529Q87.391-19.66,93.051-19.66Zm.027,18.211A6.172,6.172,0,0,0,98.1-3.719a8.721,8.721,0,0,0,1.873-5.742,7.962,7.962,0,0,0-2.01-5.605,6.623,6.623,0,0,0-5.1-2.187,5.993,5.993,0,0,0-4.922,2.146,8.481,8.481,0,0,0-1.75,5.537,8.617,8.617,0,0,0,1.941,5.934A6.324,6.324,0,0,0,93.078-1.449Z" transform="translate(0.082 39.813)" fill="#232323"/>
</svg>
