<svg xmlns="http://www.w3.org/2000/svg" width="34.872" height="34.872" viewBox="0 0 34.872 34.872">
  <path id="Subtraction_24" data-name="Subtraction 24" d="M17.436,34.872a17.441,17.441,0,0,1-6.787-33.5A17.441,17.441,0,0,1,24.223,33.5,17.328,17.328,0,0,1,17.436,34.872ZM9.669,22.312h0a8.912,8.912,0,0,0,4.875,1.418,9.133,9.133,0,0,0,3.875-.818,8.285,8.285,0,0,0,2.874-2.129A9.9,9.9,0,0,0,23,17.891a9.057,9.057,0,0,0,.6-3.22v-.4a6.874,6.874,0,0,0,1.6-1.637,6.767,6.767,0,0,1-1.856.473,3.07,3.07,0,0,0,1.419-1.746,6.7,6.7,0,0,1-2.038.764,3.118,3.118,0,0,0-2.329-.982,3.168,3.168,0,0,0-3.165,3.166,3.732,3.732,0,0,0,.073.728,8.993,8.993,0,0,1-3.657-.982,9.186,9.186,0,0,1-2.892-2.328,3.181,3.181,0,0,0,.982,4.257,3.461,3.461,0,0,1-1.455-.4v.036a3.051,3.051,0,0,0,.728,2,3.111,3.111,0,0,0,1.819,1.091,2.444,2.444,0,0,1-.837.145,2.4,2.4,0,0,1-.582-.073,3.059,3.059,0,0,0,1.11,1.565A3.231,3.231,0,0,0,14.4,21a6.353,6.353,0,0,1-3.966,1.346C10.164,22.348,9.907,22.336,9.669,22.312Z" fill="#232323"/>
</svg>
