<svg xmlns="http://www.w3.org/2000/svg" width="34.872" height="34.872" viewBox="0 0 34.872 34.872">
  <path id="Subtraction_23" data-name="Subtraction 23" d="M17.436,34.872a17.441,17.441,0,0,1-6.787-33.5A17.441,17.441,0,0,1,24.223,33.5,17.328,17.328,0,0,1,17.436,34.872ZM10.587,17.436v5.1a1.771,1.771,0,0,0,1.748,1.748H22.609a1.715,1.715,0,0,0,1.677-1.748v-5.1H21.449a4.013,4.013,0,0,1-1.17,2.81,4.009,4.009,0,0,1-5.65,0,4.016,4.016,0,0,1-1.17-2.813Zm6.832-2.878a2.854,2.854,0,1,0,2.854,2.854A2.857,2.857,0,0,0,17.418,14.558Zm.035-1.137A3.971,3.971,0,0,1,20.279,14.6a3.921,3.921,0,0,1,1.007,1.7h3V12.263a1.659,1.659,0,0,0-1.677-1.677H12.334a1.715,1.715,0,0,0-1.748,1.677v4.031h3.035a3.923,3.923,0,0,1,1.007-1.7A3.971,3.971,0,0,1,17.454,13.421Zm5.234.59h-1.37a.457.457,0,0,1-.457-.457v-1.37a.457.457,0,0,1,.457-.457h1.37a.457.457,0,0,1,.457.457v1.37A.457.457,0,0,1,22.687,14.011Z" fill="#232323"/>
</svg>
